<svg width="46" height="46" viewBox="0 0 46 46" fill="none" xmlns="http://www.w3.org/2000/svg">
<circle cx="23" cy="23" r="23" fill="#F3E1D5"/>
<path fill-rule="evenodd" clip-rule="evenodd" d="M23 33C25.2091 33 27 31.2091 27 29C27 26.7909 25.2091 25 23 25C20.7909 25 19 26.7909 19 29C19 31.2091 20.7909 33 23 33ZM33 23C33 26.4784 31.224 29.5421 28.5293 31.3336C28.8324 30.6163 29 29.8277 29 29C29 26.4354 27.3909 24.2466 25.1273 23.388C26.2523 22.6802 27 21.4274 27 20C27 17.7909 25.2091 16 23 16C20.7909 16 19 17.7909 19 20C19 21.4274 19.7477 22.6802 20.8727 23.388C18.6091 24.2466 17 26.4354 17 29C17 29.8277 17.1676 30.6163 17.4707 31.3336C14.776 29.5421 13 26.4784 13 23C13 17.4772 17.4772 13 23 13C28.5228 13 33 17.4772 33 23ZM23 35C29.6274 35 35 29.6274 35 23C35 16.3726 29.6274 11 23 11C16.3726 11 11 16.3726 11 23C11 29.6274 16.3726 35 23 35ZM23 22C24.1046 22 25 21.1046 25 20C25 18.8954 24.1046 18 23 18C21.8954 18 21 18.8954 21 20C21 21.1046 21.8954 22 23 22Z" fill="#DAA27D"/>
</svg>
