<svg width="50" height="50" viewBox="0 0 50 50" fill="none" xmlns="http://www.w3.org/2000/svg">
<mask id="mask0_11_479" style="mask-type:alpha" maskUnits="userSpaceOnUse" x="0" y="0" width="50" height="50">
<circle cx="25" cy="25" r="25" fill="#C4C4C4"/>
</mask>
<g mask="url(#mask0_11_479)">
<path d="M15 42V12.5C15 11.6716 15.6716 11 16.5 11H45.5C46.6046 11 47.5 11.8954 47.5 13V42C47.5 43.1046 46.6046 44 45.5 44H17C15.8954 44 15 43.1046 15 42Z" fill="#8B7EE8"/>
<path d="M25 31H38.5M38.5 37.5H25" stroke="white" stroke-width="2"/>
<circle cx="31" cy="11" r="11" fill="#3B3968"/>
<path d="M25.8708 7.82735L30.5 5.1547L35.1292 7.82735V13.1727L30.5 15.8453L25.8708 13.1727V7.82735Z" stroke="white" stroke-width="2"/>
</g>
</svg>
