<svg width="16" height="27" viewBox="0 0 16 27" fill="none" xmlns="http://www.w3.org/2000/svg">
<path d="M8.20846 11.8958C4.89805 11.0354 3.83346 10.1458 3.83346 8.76042C3.83346 7.17083 5.30638 6.0625 7.77096 6.0625C10.3668 6.0625 11.3293 7.30208 11.4168 9.125H14.6397C14.5376 6.61667 13.0064 4.3125 9.95846 3.56875V0.375H5.58346V3.525C2.7543 4.1375 0.479297 5.975 0.479297 8.78958C0.479297 12.1583 3.26471 13.8354 7.33346 14.8125C10.9793 15.6875 11.7085 16.9708 11.7085 18.3271C11.7085 19.3333 10.9939 20.9375 7.77096 20.9375C4.7668 20.9375 3.58555 19.5958 3.42513 17.875H0.216797C0.391797 21.0688 2.78346 22.8625 5.58346 23.4604V26.625H9.95846V23.4896C12.8022 22.95 15.0626 21.3021 15.0626 18.3125C15.0626 14.1708 11.5189 12.7562 8.20846 11.8958Z" fill="white"/>
</svg>
