<svg width="20" height="20" viewBox="0 0 20 20" fill="none" xmlns="http://www.w3.org/2000/svg">
<path d="M7.74645 15.1036L8.1 15.4571L8.45355 15.1036L17.0036 6.55355L17.3559 6.20125L17.0048 5.8477L15.6653 4.4987L15.3118 4.14264L14.9569 4.49745L8.09951 11.3549L5.04256 8.30645L4.68901 7.95389L4.33595 8.30695L2.99645 9.64645L2.64289 10L2.99645 10.3536L7.74645 15.1036ZM1 10C1 5.03214 5.03214 1 10 1C14.9679 1 19 5.03214 19 10C19 14.9679 14.9679 19 10 19C5.03214 19 1 14.9679 1 10Z" fill="#FF0000" stroke="#FF0000"/>
</svg>
