<svg width="20" height="22" viewBox="0 0 20 22" fill="none" xmlns="http://www.w3.org/2000/svg">
<path d="M7.72923 16.5855L8.1 16.9953L8.47077 16.5855L17.0208 7.13546L17.3232 6.80118L17.0219 6.46585L15.6824 4.97485L15.3118 4.5623L14.9397 4.97354L8.09948 12.5338L5.0598 9.18353L4.68898 8.77482L4.31873 9.18404L2.97923 10.6645L2.67572 11L2.97923 11.3355L7.72923 16.5855ZM1 11C1 5.43188 5.07805 1 10 1C14.922 1 19 5.43188 19 11C19 16.5681 14.922 21 10 21C5.07805 21 1 16.5681 1 11Z" fill="white" stroke="#6E60DF"/>
</svg>
