<svg width="134" height="51" viewBox="0 0 134 51" fill="none" xmlns="http://www.w3.org/2000/svg">
<path d="M2.34 30V8.85H16.29V11.88H6.21V17.88H15.6V20.91H6.21V30H2.34ZM19.208 30V14.85H22.958V30H19.208ZM18.998 12V8.34H23.168V12H18.998ZM27.0302 30V18.63C27.0302 18.01 27.0102 17.38 26.9702 16.74C26.9302 16.1 26.8702 15.47 26.7902 14.85H30.4202L30.7202 17.85H30.3602C30.8402 16.79 31.5502 15.98 32.4902 15.42C33.4302 14.84 34.5202 14.55 35.7602 14.55C37.5402 14.55 38.8802 15.05 39.7802 16.05C40.6802 17.05 41.1302 18.61 41.1302 20.73V30H37.3802V20.91C37.3802 19.69 37.1402 18.82 36.6602 18.3C36.2002 17.76 35.5002 17.49 34.5602 17.49C33.4002 17.49 32.4802 17.85 31.8002 18.57C31.1202 19.29 30.7802 20.25 30.7802 21.45V30H27.0302ZM45.4064 30V8.85H49.2764V17.67H60.1064V8.85H63.9764V30H60.1064V20.88H49.2764V30H45.4064ZM75.1788 30.3C73.6188 30.3 72.2688 29.98 71.1288 29.34C69.9888 28.7 69.0988 27.79 68.4588 26.61C67.8388 25.43 67.5288 24.03 67.5288 22.41C67.5288 20.79 67.8388 19.4 68.4588 18.24C69.0988 17.06 69.9888 16.15 71.1288 15.51C72.2688 14.87 73.6188 14.55 75.1788 14.55C76.7388 14.55 78.0888 14.87 79.2288 15.51C80.3888 16.15 81.2788 17.06 81.8988 18.24C82.5388 19.4 82.8588 20.79 82.8588 22.41C82.8588 24.03 82.5388 25.43 81.8988 26.61C81.2788 27.79 80.3888 28.7 79.2288 29.34C78.0888 29.98 76.7388 30.3 75.1788 30.3ZM75.1788 27.42C76.3588 27.42 77.2988 27.01 77.9988 26.19C78.6988 25.35 79.0488 24.09 79.0488 22.41C79.0488 20.73 78.6988 19.48 77.9988 18.66C77.2988 17.84 76.3588 17.43 75.1788 17.43C73.9988 17.43 73.0588 17.84 72.3588 18.66C71.6588 19.48 71.3088 20.73 71.3088 22.41C71.3088 24.09 71.6588 25.35 72.3588 26.19C73.0588 27.01 73.9988 27.42 75.1788 27.42ZM91.5527 30.3C89.6927 30.3 88.3027 29.79 87.3827 28.77C86.4627 27.75 86.0027 26.19 86.0027 24.09V14.85H89.7527V24.06C89.7527 25.18 89.9827 26.01 90.4427 26.55C90.9027 27.07 91.6027 27.33 92.5427 27.33C93.6027 27.33 94.4627 26.97 95.1227 26.25C95.8027 25.53 96.1427 24.58 96.1427 23.4V14.85H99.8927V30H96.2327V26.91H96.6527C96.2127 27.99 95.5427 28.83 94.6427 29.43C93.7627 30.01 92.7327 30.3 91.5527 30.3ZM109.364 30.3C108.064 30.3 106.864 30.15 105.764 29.85C104.684 29.53 103.774 29.09 103.034 28.53L104.084 26.01C104.844 26.53 105.684 26.93 106.604 27.21C107.524 27.49 108.454 27.63 109.394 27.63C110.394 27.63 111.134 27.46 111.614 27.12C112.114 26.78 112.364 26.32 112.364 25.74C112.364 25.28 112.204 24.92 111.884 24.66C111.584 24.38 111.094 24.17 110.414 24.03L107.414 23.46C106.134 23.18 105.154 22.7 104.474 22.02C103.814 21.34 103.484 20.45 103.484 19.35C103.484 18.41 103.734 17.58 104.234 16.86C104.754 16.14 105.484 15.58 106.424 15.18C107.384 14.76 108.504 14.55 109.784 14.55C110.904 14.55 111.954 14.7 112.934 15C113.934 15.3 114.774 15.75 115.454 16.35L114.374 18.78C113.754 18.28 113.044 17.89 112.244 17.61C111.444 17.33 110.664 17.19 109.904 17.19C108.864 17.19 108.104 17.38 107.624 17.76C107.144 18.12 106.904 18.59 106.904 19.17C106.904 19.61 107.044 19.98 107.324 20.28C107.624 20.56 108.084 20.77 108.704 20.91L111.704 21.48C113.044 21.74 114.054 22.2 114.734 22.86C115.434 23.5 115.784 24.38 115.784 25.5C115.784 26.5 115.514 27.36 114.974 28.08C114.434 28.8 113.684 29.35 112.724 29.73C111.764 30.11 110.644 30.3 109.364 30.3ZM126.313 30.3C123.773 30.3 121.783 29.6 120.343 28.2C118.903 26.8 118.183 24.88 118.183 22.44C118.183 20.86 118.493 19.48 119.113 18.3C119.733 17.12 120.593 16.2 121.693 15.54C122.813 14.88 124.113 14.55 125.593 14.55C127.053 14.55 128.273 14.86 129.253 15.48C130.233 16.1 130.973 16.97 131.473 18.09C131.993 19.21 132.253 20.52 132.253 22.02V23.01H121.213V21.03H129.583L129.073 21.45C129.073 20.05 128.773 18.98 128.173 18.24C127.593 17.5 126.743 17.13 125.623 17.13C124.383 17.13 123.423 17.57 122.743 18.45C122.083 19.33 121.753 20.56 121.753 22.14V22.53C121.753 24.17 122.153 25.4 122.953 26.22C123.773 27.02 124.923 27.42 126.403 27.42C127.263 27.42 128.063 27.31 128.803 27.09C129.563 26.85 130.283 26.47 130.963 25.95L132.073 28.47C131.353 29.05 130.493 29.5 129.493 29.82C128.493 30.14 127.433 30.3 126.313 30.3Z" fill="#332D76"/>
<path d="M4.57 48.1C4.14333 48.1 3.77 47.9967 3.45 47.79C3.13 47.5767 2.91667 47.29 2.81 46.93H2.92V48H1.68V40.64H2.93V43.98H2.81C2.92333 43.6333 3.14 43.36 3.46 43.16C3.78 42.9533 4.15 42.85 4.57 42.85C5.01667 42.85 5.40667 42.9567 5.74 43.17C6.07333 43.3833 6.33333 43.6867 6.52 44.08C6.70667 44.4667 6.8 44.9333 6.8 45.48C6.8 46.0267 6.70667 46.4967 6.52 46.89C6.33333 47.2767 6.07 47.5767 5.73 47.79C5.39667 47.9967 5.01 48.1 4.57 48.1ZM4.22 47.14C4.61333 47.14 4.93 47.0033 5.17 46.73C5.41667 46.4567 5.54 46.04 5.54 45.48C5.54 44.92 5.41667 44.5033 5.17 44.23C4.93 43.95 4.61333 43.81 4.22 43.81C3.82667 43.81 3.51 43.9467 3.27 44.22C3.03 44.4933 2.91 44.91 2.91 45.47C2.91 46.03 3.03 46.45 3.27 46.73C3.51 47.0033 3.82667 47.14 4.22 47.14ZM7.68352 50.27L7.39352 49.28C7.70685 49.2133 7.97018 49.1367 8.18352 49.05C8.39685 48.9633 8.57352 48.85 8.71352 48.71C8.85352 48.57 8.97018 48.39 9.06352 48.17L9.31352 47.58L9.28352 48.07L7.08352 42.95H8.41352L9.99352 46.89H9.70352L11.2935 42.95H12.5535L10.2535 48.28C10.1002 48.64 9.93352 48.9367 9.75352 49.17C9.57352 49.41 9.38018 49.6 9.17352 49.74C8.96685 49.8867 8.74018 50 8.49352 50.08C8.24685 50.16 7.97685 50.2233 7.68352 50.27ZM16.0573 48V40.95H19.1373C19.9107 40.95 20.5073 41.1333 20.9273 41.5C21.354 41.8667 21.5673 42.3767 21.5673 43.03C21.5673 43.4633 21.4707 43.8333 21.2773 44.14C21.0907 44.4467 20.8207 44.6833 20.4673 44.85C20.114 45.01 19.6973 45.09 19.2173 45.09L19.3573 44.9H19.6973C19.9773 44.9 20.2273 44.9733 20.4473 45.12C20.6673 45.2667 20.8473 45.49 20.9873 45.79L22.0173 48H20.5973L19.5573 45.71C19.464 45.4767 19.3207 45.3233 19.1273 45.25C18.9407 45.1767 18.714 45.14 18.4473 45.14H17.3473V48H16.0573ZM17.3473 44.19H18.9273C19.3807 44.19 19.724 44.0967 19.9573 43.91C20.1973 43.7167 20.3173 43.4367 20.3173 43.07C20.3173 42.7033 20.1973 42.4267 19.9573 42.24C19.724 42.0533 19.3807 41.96 18.9273 41.96H17.3473V44.19ZM25.1319 48.1C24.6119 48.1 24.1619 47.9933 23.7819 47.78C23.4019 47.5667 23.1052 47.2633 22.8919 46.87C22.6852 46.4767 22.5819 46.01 22.5819 45.47C22.5819 44.93 22.6852 44.4667 22.8919 44.08C23.1052 43.6867 23.4019 43.3833 23.7819 43.17C24.1619 42.9567 24.6119 42.85 25.1319 42.85C25.6519 42.85 26.1019 42.9567 26.4819 43.17C26.8685 43.3833 27.1652 43.6867 27.3719 44.08C27.5852 44.4667 27.6919 44.93 27.6919 45.47C27.6919 46.01 27.5852 46.4767 27.3719 46.87C27.1652 47.2633 26.8685 47.5667 26.4819 47.78C26.1019 47.9933 25.6519 48.1 25.1319 48.1ZM25.1319 47.14C25.5252 47.14 25.8385 47.0033 26.0719 46.73C26.3052 46.45 26.4219 46.03 26.4219 45.47C26.4219 44.91 26.3052 44.4933 26.0719 44.22C25.8385 43.9467 25.5252 43.81 25.1319 43.81C24.7385 43.81 24.4252 43.9467 24.1919 44.22C23.9585 44.4933 23.8419 44.91 23.8419 45.47C23.8419 46.03 23.9585 46.45 24.1919 46.73C24.4252 47.0033 24.7385 47.14 25.1319 47.14ZM31.6598 48.1C31.2332 48.1 30.8598 47.9967 30.5398 47.79C30.2198 47.5767 30.0065 47.29 29.8998 46.93H30.0098V48H28.7698V40.64H30.0198V43.98H29.8998C30.0132 43.6333 30.2298 43.36 30.5498 43.16C30.8698 42.9533 31.2398 42.85 31.6598 42.85C32.1065 42.85 32.4965 42.9567 32.8298 43.17C33.1632 43.3833 33.4232 43.6867 33.6098 44.08C33.7965 44.4667 33.8898 44.9333 33.8898 45.48C33.8898 46.0267 33.7965 46.4967 33.6098 46.89C33.4232 47.2767 33.1598 47.5767 32.8198 47.79C32.4865 47.9967 32.0998 48.1 31.6598 48.1ZM31.3098 47.14C31.7032 47.14 32.0198 47.0033 32.2598 46.73C32.5065 46.4567 32.6298 46.04 32.6298 45.48C32.6298 44.92 32.5065 44.5033 32.2598 44.23C32.0198 43.95 31.7032 43.81 31.3098 43.81C30.9165 43.81 30.5998 43.9467 30.3598 44.22C30.1198 44.4933 29.9998 44.91 29.9998 45.47C29.9998 46.03 30.1198 46.45 30.3598 46.73C30.5998 47.0033 30.9165 47.14 31.3098 47.14ZM37.411 48.1C36.5643 48.1 35.901 47.8667 35.421 47.4C34.941 46.9333 34.701 46.2933 34.701 45.48C34.701 44.9533 34.8043 44.4933 35.011 44.1C35.2177 43.7067 35.5043 43.4 35.871 43.18C36.2443 42.96 36.6777 42.85 37.171 42.85C37.6577 42.85 38.0643 42.9533 38.391 43.16C38.7177 43.3667 38.9643 43.6567 39.131 44.03C39.3043 44.4033 39.391 44.84 39.391 45.34V45.67H35.711V45.01H38.501L38.331 45.15C38.331 44.6833 38.231 44.3267 38.031 44.08C37.8377 43.8333 37.5543 43.71 37.181 43.71C36.7677 43.71 36.4477 43.8567 36.221 44.15C36.001 44.4433 35.891 44.8533 35.891 45.38V45.51C35.891 46.0567 36.0243 46.4667 36.291 46.74C36.5643 47.0067 36.9477 47.14 37.441 47.14C37.7277 47.14 37.9943 47.1033 38.241 47.03C38.4943 46.95 38.7343 46.8233 38.961 46.65L39.331 47.49C39.091 47.6833 38.8043 47.8333 38.471 47.94C38.1377 48.0467 37.7843 48.1 37.411 48.1ZM40.4395 48V44.24C40.4395 44.0267 40.4329 43.81 40.4195 43.59C40.4129 43.37 40.3962 43.1567 40.3695 42.95H41.5795L41.7195 44.33H41.5195C41.5862 43.9967 41.6962 43.72 41.8495 43.5C42.0095 43.28 42.2029 43.1167 42.4295 43.01C42.6562 42.9033 42.9029 42.85 43.1695 42.85C43.2895 42.85 43.3862 42.8567 43.4595 42.87C43.5329 42.8767 43.6062 42.8933 43.6795 42.92L43.6695 44.02C43.5429 43.9667 43.4329 43.9333 43.3395 43.92C43.2529 43.9067 43.1429 43.9 43.0095 43.9C42.7229 43.9 42.4795 43.96 42.2795 44.08C42.0862 44.2 41.9395 44.3667 41.8395 44.58C41.7462 44.7933 41.6995 45.0367 41.6995 45.31V48H40.4395ZM46.8185 48.1C46.2185 48.1 45.7652 47.9433 45.4585 47.63C45.1518 47.3167 44.9985 46.8467 44.9985 46.22V43.89H44.0285V42.95H44.9985V41.66L46.2485 41.34V42.95H47.5985V43.89H46.2485V46.14C46.2485 46.4867 46.3152 46.73 46.4485 46.87C46.5818 47.01 46.7652 47.08 46.9985 47.08C47.1252 47.08 47.2318 47.07 47.3185 47.05C47.4118 47.03 47.5018 47.0033 47.5885 46.97V47.96C47.4752 48.0067 47.3485 48.04 47.2085 48.06C47.0752 48.0867 46.9452 48.1 46.8185 48.1ZM51.2917 48V40.95H52.2617L56.3517 46.24H56.0917V40.95H57.2917V48H56.3217L52.2417 42.71H52.4917V48H51.2917ZM60.6905 48.1C60.2505 48.1 59.8639 47.9967 59.5305 47.79C59.1972 47.5767 58.9372 47.2733 58.7505 46.88C58.5639 46.4867 58.4705 46.0167 58.4705 45.47C58.4705 44.9233 58.5639 44.4567 58.7505 44.07C58.9372 43.6767 59.1972 43.3767 59.5305 43.17C59.8639 42.9567 60.2505 42.85 60.6905 42.85C61.1172 42.85 61.4905 42.9567 61.8105 43.17C62.1372 43.3767 62.3539 43.6567 62.4605 44.01H62.3505L62.4605 42.95H63.6605C63.6405 43.1567 63.6205 43.3667 63.6005 43.58C63.5872 43.7933 63.5805 44.0033 63.5805 44.21V48H62.3405L62.3305 46.96H62.4505C62.3439 47.3067 62.1272 47.5833 61.8005 47.79C61.4739 47.9967 61.1039 48.1 60.6905 48.1ZM61.0405 47.14C61.4339 47.14 61.7505 47.0033 61.9905 46.73C62.2305 46.45 62.3505 46.03 62.3505 45.47C62.3505 44.91 62.2305 44.4933 61.9905 44.22C61.7505 43.9467 61.4339 43.81 61.0405 43.81C60.6472 43.81 60.3305 43.9467 60.0905 44.22C59.8505 44.4933 59.7305 44.91 59.7305 45.47C59.7305 46.03 59.8472 46.45 60.0805 46.73C60.3205 47.0033 60.6405 47.14 61.0405 47.14ZM66.2929 48L64.3229 42.95H65.6129L67.0329 46.88H66.7729L68.2129 42.95H69.1029L70.5329 46.88H70.3029L71.7129 42.95H72.9329L70.9629 48H69.8629L68.3529 43.98H68.8829L67.4029 48H66.2929ZM73.711 48V44.24C73.711 44.0267 73.7043 43.81 73.691 43.59C73.6843 43.37 73.6677 43.1567 73.641 42.95H74.851L74.991 44.33H74.791C74.8577 43.9967 74.9677 43.72 75.121 43.5C75.281 43.28 75.4743 43.1167 75.701 43.01C75.9277 42.9033 76.1743 42.85 76.441 42.85C76.561 42.85 76.6577 42.8567 76.731 42.87C76.8043 42.8767 76.8777 42.8933 76.951 42.92L76.941 44.02C76.8143 43.9667 76.7043 43.9333 76.611 43.92C76.5243 43.9067 76.4143 43.9 76.281 43.9C75.9943 43.9 75.751 43.96 75.551 44.08C75.3577 44.2 75.211 44.3667 75.111 44.58C75.0177 44.7933 74.971 45.0367 74.971 45.31V48H73.711ZM79.8487 48.1C79.3287 48.1 78.8787 47.9933 78.4987 47.78C78.1187 47.5667 77.822 47.2633 77.6087 46.87C77.402 46.4767 77.2987 46.01 77.2987 45.47C77.2987 44.93 77.402 44.4667 77.6087 44.08C77.822 43.6867 78.1187 43.3833 78.4987 43.17C78.8787 42.9567 79.3287 42.85 79.8487 42.85C80.3687 42.85 80.8187 42.9567 81.1987 43.17C81.5853 43.3833 81.882 43.6867 82.0887 44.08C82.302 44.4667 82.4087 44.93 82.4087 45.47C82.4087 46.01 82.302 46.4767 82.0887 46.87C81.882 47.2633 81.5853 47.5667 81.1987 47.78C80.8187 47.9933 80.3687 48.1 79.8487 48.1ZM79.8487 47.14C80.242 47.14 80.5553 47.0033 80.7887 46.73C81.022 46.45 81.1387 46.03 81.1387 45.47C81.1387 44.91 81.022 44.4933 80.7887 44.22C80.5553 43.9467 80.242 43.81 79.8487 43.81C79.4553 43.81 79.142 43.9467 78.9087 44.22C78.6753 44.4933 78.5587 44.91 78.5587 45.47C78.5587 46.03 78.6753 46.45 78.9087 46.73C79.142 47.0033 79.4553 47.14 79.8487 47.14ZM85.5978 48.1C84.9978 48.1 84.5445 47.9433 84.2378 47.63C83.9311 47.3167 83.7778 46.8467 83.7778 46.22V43.89H82.8078V42.95H83.7778V41.66L85.0278 41.34V42.95H86.3778V43.89H85.0278V46.14C85.0278 46.4867 85.0945 46.73 85.2278 46.87C85.3611 47.01 85.5445 47.08 85.7778 47.08C85.9045 47.08 86.0111 47.07 86.0978 47.05C86.1911 47.03 86.2811 47.0033 86.3678 46.97V47.96C86.2545 48.0067 86.1278 48.04 85.9878 48.06C85.8545 48.0867 85.7245 48.1 85.5978 48.1Z" fill="black"/>
</svg>
