<svg width="19" height="19" viewBox="0 0 19 19" fill="none" xmlns="http://www.w3.org/2000/svg">
<mask id="path-1-inside-1_163_876" fill="white">
<path d="M9.5 0C4.256 0 0 4.256 0 9.5C0 14.744 4.256 19 9.5 19C14.744 19 19 14.744 19 9.5C19 4.256 14.744 0 9.5 0ZM9.5 17.1C5.301 17.1 1.9 13.699 1.9 9.5C1.9 7.7425 2.4985 6.1275 3.5055 4.845L14.155 15.4945C12.8725 16.5015 11.2575 17.1 9.5 17.1ZM15.4945 14.155L4.845 3.5055C6.1275 2.4985 7.7425 1.9 9.5 1.9C13.699 1.9 17.1 5.301 17.1 9.5C17.1 11.2575 16.5015 12.8725 15.4945 14.155Z"/>
</mask>
<path d="M9.5 0C4.256 0 0 4.256 0 9.5C0 14.744 4.256 19 9.5 19C14.744 19 19 14.744 19 9.5C19 4.256 14.744 0 9.5 0ZM9.5 17.1C5.301 17.1 1.9 13.699 1.9 9.5C1.9 7.7425 2.4985 6.1275 3.5055 4.845L14.155 15.4945C12.8725 16.5015 11.2575 17.1 9.5 17.1ZM15.4945 14.155L4.845 3.5055C6.1275 2.4985 7.7425 1.9 9.5 1.9C13.699 1.9 17.1 5.301 17.1 9.5C17.1 11.2575 16.5015 12.8725 15.4945 14.155Z" fill="white"/>
<path d="M3.5055 4.845L6.33393 2.01657L3.14475 -1.17261L0.359418 2.37474L3.5055 4.845ZM14.155 15.4945L16.6253 18.6406L20.1726 15.8553L16.9834 12.6661L14.155 15.4945ZM15.4945 14.155L12.6661 16.9834L15.8553 20.1726L18.6406 16.6253L15.4945 14.155ZM4.845 3.5055L2.37474 0.359418L-1.17261 3.14475L2.01657 6.33393L4.845 3.5055ZM9.5 -4C2.04686 -4 -4 2.04686 -4 9.5H4C4 6.46514 6.46514 4 9.5 4V-4ZM-4 9.5C-4 16.9531 2.04686 23 9.5 23V15C6.46514 15 4 12.5349 4 9.5H-4ZM9.5 23C16.9531 23 23 16.9531 23 9.5H15C15 12.5349 12.5349 15 9.5 15V23ZM23 9.5C23 2.04686 16.9531 -4 9.5 -4V4C12.5349 4 15 6.46514 15 9.5H23ZM9.5 13.1C7.51014 13.1 5.9 11.4899 5.9 9.5H-2.1C-2.1 15.9081 3.09186 21.1 9.5 21.1V13.1ZM5.9 9.5C5.9 8.66745 6.17953 7.91645 6.65158 7.31526L0.359418 2.37474C-1.18253 4.33855 -2.1 6.81755 -2.1 9.5H5.9ZM0.677073 7.67343L11.3266 18.3229L16.9834 12.6661L6.33393 2.01657L0.677073 7.67343ZM11.6847 12.3484C11.0835 12.8205 10.3326 13.1 9.5 13.1V21.1C12.1824 21.1 14.6615 20.1825 16.6253 18.6406L11.6847 12.3484ZM18.3229 11.3266L7.67343 0.677073L2.01657 6.33393L12.6661 16.9834L18.3229 11.3266ZM7.31526 6.65158C7.91645 6.17953 8.66745 5.9 9.5 5.9V-2.1C6.81755 -2.1 4.33855 -1.18253 2.37474 0.359418L7.31526 6.65158ZM9.5 5.9C11.4899 5.9 13.1 7.51014 13.1 9.5H21.1C21.1 3.09186 15.9081 -2.1 9.5 -2.1V5.9ZM13.1 9.5C13.1 10.3326 12.8205 11.0835 12.3484 11.6847L18.6406 16.6253C20.1825 14.6615 21.1 12.1824 21.1 9.5H13.1Z" fill="#5D5FEF" mask="url(#path-1-inside-1_163_876)"/>
</svg>
