<svg width="19" height="19" viewBox="0 0 19 19" fill="none" xmlns="http://www.w3.org/2000/svg">
<path d="M9.5 0C4.256 0 0 4.256 0 9.5C0 14.744 4.256 19 9.5 19C14.744 19 19 14.744 19 9.5C19 4.256 14.744 0 9.5 0ZM9.5 17.1C5.301 17.1 1.9 13.699 1.9 9.5C1.9 7.7425 2.4985 6.1275 3.5055 4.845L14.155 15.4945C12.8725 16.5015 11.2575 17.1 9.5 17.1ZM15.4945 14.155L4.845 3.5055C6.1275 2.4985 7.7425 1.9 9.5 1.9C13.699 1.9 17.1 5.301 17.1 9.5C17.1 11.2575 16.5015 12.8725 15.4945 14.155Z" fill="#FF0000"/>
</svg>
